<svg width="16" height="16" viewBox="0 0 16 16" fill="none" xmlns="http://www.w3.org/2000/svg">
<g clip-path="url(#clip0_2534_12195)">
<path d="M11 1.5H14C14.1326 1.50016 14.2596 1.55289 14.3534 1.64662C14.4471 1.74036 14.4998 1.86744 14.5 2V5C14.5 5.13261 14.5527 5.25979 14.6464 5.35355C14.7402 5.44732 14.8674 5.5 15 5.5C15.1326 5.5 15.2598 5.44732 15.3536 5.35355C15.4473 5.25979 15.5 5.13261 15.5 5V2C15.4995 1.60231 15.3414 1.22104 15.0602 0.939837C14.779 0.65863 14.3977 0.50045 14 0.5H11C10.8674 0.5 10.7402 0.552678 10.6464 0.646447C10.5527 0.740215 10.5 0.867392 10.5 1C10.5 1.13261 10.5527 1.25979 10.6464 1.35355C10.7402 1.44732 10.8674 1.5 11 1.5Z" fill="#606060"/>
<path d="M15 10.5C14.8674 10.5 14.7402 10.5527 14.6464 10.6464C14.5527 10.7402 14.5 10.8674 14.5 11V14C14.4998 14.1326 14.4471 14.2596 14.3534 14.3534C14.2596 14.4471 14.1326 14.4998 14 14.5H11C10.8674 14.5 10.7402 14.5527 10.6464 14.6464C10.5527 14.7402 10.5 14.8674 10.5 15C10.5 15.1326 10.5527 15.2598 10.6464 15.3536C10.7402 15.4473 10.8674 15.5 11 15.5H14C14.3977 15.4995 14.779 15.3414 15.0602 15.0602C15.3414 14.779 15.4995 14.3977 15.5 14V11C15.5 10.8674 15.4473 10.7402 15.3536 10.6464C15.2598 10.5527 15.1326 10.5 15 10.5Z" fill="#606060"/>
<path d="M2 15.5H5C5.13261 15.5 5.25979 15.4473 5.35355 15.3536C5.44732 15.2598 5.5 15.1326 5.5 15C5.5 14.8674 5.44732 14.7402 5.35355 14.6464C5.25979 14.5527 5.13261 14.5 5 14.5H2C1.86744 14.4998 1.74036 14.4471 1.64662 14.3534C1.55289 14.2596 1.50016 14.1326 1.5 14V11C1.5 10.8674 1.44732 10.7402 1.35355 10.6464C1.25979 10.5527 1.13261 10.5 1 10.5C0.867392 10.5 0.740215 10.5527 0.646447 10.6464C0.552678 10.7402 0.5 10.8674 0.5 11V14C0.50045 14.3977 0.65863 14.779 0.939837 15.0602C1.22104 15.3414 1.60231 15.4995 2 15.5Z" fill="#606060"/>
<path d="M1 5.5C1.13261 5.5 1.25979 5.44732 1.35355 5.35355C1.44732 5.25979 1.5 5.13261 1.5 5V2C1.50016 1.86744 1.55289 1.74036 1.64662 1.64662C1.74036 1.55289 1.86744 1.50016 2 1.5H5C5.13261 1.5 5.25979 1.44732 5.35355 1.35355C5.44732 1.25979 5.5 1.13261 5.5 1C5.5 0.867392 5.44732 0.740215 5.35355 0.646447C5.25979 0.552678 5.13261 0.5 5 0.5H2C1.60231 0.50045 1.22104 0.65863 0.939837 0.939837C0.65863 1.22104 0.50045 1.60231 0.5 2V5C0.5 5.13261 0.552678 5.25979 0.646447 5.35355C0.740215 5.44732 0.867392 5.5 1 5.5Z" fill="#606060"/>
<path d="M8 11.5C8.69223 11.5 9.36892 11.2947 9.9445 10.9101C10.5201 10.5256 10.9687 9.97893 11.2336 9.33939C11.4985 8.69985 11.5678 7.99612 11.4327 7.31719C11.2977 6.63825 10.9644 6.01461 10.4749 5.52513C9.98539 5.03564 9.36175 4.7023 8.68282 4.56725C8.00388 4.4322 7.30015 4.50152 6.66061 4.76642C6.02107 5.03133 5.47444 5.47993 5.08986 6.05551C4.70527 6.63108 4.5 7.30777 4.5 8C4.50111 8.92792 4.87022 9.81751 5.52635 10.4736C6.18249 11.1298 7.07208 11.4989 8 11.5ZM8 5.5C8.49445 5.5 8.9778 5.64662 9.38893 5.92133C9.80005 6.19603 10.1205 6.58648 10.3097 7.04329C10.4989 7.50011 10.5484 8.00278 10.452 8.48773C10.3555 8.97268 10.1174 9.41814 9.76777 9.76777C9.41814 10.1174 8.97268 10.3555 8.48773 10.452C8.00277 10.5484 7.50011 10.4989 7.04329 10.3097C6.58648 10.1205 6.19603 9.80005 5.92133 9.38893C5.64662 8.9778 5.5 8.49445 5.5 8C5.50069 7.33717 5.7643 6.70169 6.23299 6.23299C6.70168 5.7643 7.33717 5.50069 8 5.5Z" fill="#606060"/>
</g>
<defs>
<clipPath id="clip0_2534_12195">
<rect width="16" height="16" fill="white"/>
</clipPath>
</defs>
</svg>
